<svg xmlns="http://www.w3.org/2000/svg" viewBox="0 0 24 24" id="avatar"><path fill="#303c42" d="m20.004 12.208.001-.048a7.998 7.998 0 0 0-.006-.693l-.403-6.042a3.489 3.489 0 0 0-1.753-2.807C16.548 1.88 14.482 1 12 1s-4.548.88-5.843 1.618a3.484 3.484 0 0 0-1.753 2.807l-.403 6.042a7.998 7.998 0 0 0-.006.693l.001.048C3.11 12.784 3 13.776 3 14.5c0 .963.899 3.13 2.173 3.458C5.734 19.004 8.131 23 12 23s6.266-3.996 6.827-5.042C20.101 17.63 21 15.463 21 14.5c0-.724-.11-1.716-.996-2.292z"></path><path fill="#fff" d="M5.402 5.491a2.487 2.487 0 0 1 1.25-2.004C7.843 2.809 9.736 2 12 2s4.157.809 5.348 1.487a2.485 2.485 0 0 1 1.25 2.004l.349 5.234a33.033 33.033 0 0 0-3.016-1.042C15.97 9.461 16 9.234 16 9c0-2.206-1.794-4-4-4S8 6.794 8 9c0 .234.03.461.069.684a33.033 33.033 0 0 0-3.016 1.042l.349-5.235z"></path><circle cx="12" cy="9" r="3" fill="#e6e6e6"></circle><path fill="#fff" d="M12.653 6.653c-1.654 0-3 1.346-3 3 0 .661.221 1.267.584 1.763A2.973 2.973 0 0 0 12 12c1.654 0 3-1.346 3-3 0-.661-.221-1.267-.584-1.763a2.976 2.976 0 0 0-1.763-.584z" opacity=".2"></path><path fill="#fff" d="M11.347 11.347c1.654 0 3-1.346 3-3 0-.661-.221-1.267-.584-1.763A2.973 2.973 0 0 0 12 6c-1.654 0-3 1.346-3 3 0 .661.221 1.267.584 1.763a2.976 2.976 0 0 0 1.763.584z" opacity=".5"></path><path fill="#bbdefb" d="M12 22c-3.113 0-5.169-3.135-5.823-4.293C7.175 17.197 9.756 16 12 16c2.24 0 4.824 1.198 5.823 1.707C17.169 18.866 15.113 22 12 22z"></path><path fill="#fee8d7" d="M18.582 16.974C17.847 16.576 14.765 15 12 15s-5.847 1.576-6.582 1.974C4.798 16.839 4 15.232 4 14.5c0-1.071.341-1.376.709-1.546A.5.5 0 0 0 5 12.5l-.005-.361c-.002-.104.002-.206.002-.308a32.156 32.156 0 0 1 3.363-1.192A4 4 0 0 0 12 13a4 4 0 0 0 3.64-2.361c1.488.431 2.805.957 3.363 1.192 0 .102.004.203.002.308L19 12.5a.5.5 0 0 0 .291.454c.369.17.709.475.709 1.546 0 .732-.798 2.339-1.418 2.474z"></path><path d="m17.777 5.491.286 4.897c.333.122.641.239.884.337l-.349-5.234a2.487 2.487 0 0 0-1.25-2.004C16.157 2.809 14.264 2 12 2c1.982 0 3.64.809 4.682 1.487.637.414 1.047 1.163 1.095 2.004z" opacity=".1"></path><path fill="#fff" d="M6.223 5.491c.049-.841.458-1.59 1.095-2.004C8.36 2.809 10.018 2 12 2c-2.264 0-4.157.809-5.348 1.487a2.485 2.485 0 0 0-1.25 2.004l-.349 5.234c.243-.098.551-.215.884-.337l.286-4.897zm.727 11.845c-.305.139-.577.27-.773.37C6.831 18.865 8.887 22 12 22c-2.658 0-4.432-3.305-5.05-4.664z" opacity=".2"></path><path d="M17.05 17.337C16.431 18.696 14.657 22 12 22c3.113 0 5.169-3.134 5.823-4.293-.197-.1-.468-.231-.773-.37z" opacity=".1"></path><path fill="#fff" d="M4.995 14.251c0-1.179.298-1.515.621-1.702.155-.09.254-.285.254-.5l-.004-.398c-.001-.057 0-.113.001-.169-.369.142-.67.264-.87.349l.003.218c0 .006-.004.011-.004.017v.073L5 12.5a.5.5 0 0 1-.291.454c-.346.16-.664.447-.702 1.368.04.832.807 2.507 1.41 2.652.108-.065.281-.163.483-.274-.457-.554-.905-1.804-.905-2.449z" opacity=".2"></path><path d="M19.994 14.365c-.029-.956-.352-1.249-.704-1.411A.5.5 0 0 1 19 12.5l.004-.325c0-.006-.004-.01-.004-.016l.003-.263v-.066a33.257 33.257 0 0 0-.871-.349c.001.096.003.191.002.289l-.004.389c0 .21.099.4.254.489.323.183.621.511.621 1.664 0 .631-.448 1.853-.905 2.395.202.109.374.205.483.268.607-.143 1.381-1.802 1.411-2.61z" opacity=".1"></path><circle cx="12" cy="9" r="2" fill="#303c42"></circle><circle cx="12" cy="9" r="1" fill="#fff"></circle><circle cx="8.5" cy="13" r="1" fill="#303c42"></circle><circle cx="15.5" cy="13" r="1" fill="#303c42"></circle><linearGradient id="a" x1="3.135" x2="20.723" y1="16.419" y2="8.217" gradientTransform="matrix(1 0 0 -1 0 24)" gradientUnits="userSpaceOnUse"><stop offset="0" stop-color="#fff" stop-opacity=".2"></stop><stop offset="1" stop-color="#fff" stop-opacity="0"></stop></linearGradient><path fill="url(#a)" d="m20.004 12.208.001-.048a7.998 7.998 0 0 0-.006-.693l-.403-6.042a3.489 3.489 0 0 0-1.753-2.807C16.548 1.88 14.482 1 12 1s-4.548.88-5.843 1.618a3.484 3.484 0 0 0-1.753 2.807l-.403 6.042a7.998 7.998 0 0 0-.006.693l.001.048C3.11 12.784 3 13.776 3 14.5c0 .963.899 3.13 2.173 3.458C5.734 19.004 8.131 23 12 23s6.266-3.996 6.827-5.042C20.101 17.63 21 15.463 21 14.5c0-.724-.11-1.716-.996-2.292z"></path></svg>