<svg xmlns="http://www.w3.org/2000/svg" viewBox="0 0 24 24" id="avatar"><path fill="#303c42" d="M22 4.5C22 2.615 13.505 0 12 0S2 2.615 2 4.5c0 1.344 1.849 2.061 2.856 2.351l-.28.839C4.243 7.947 3.5 8.619 3.5 9.5c0 .287.248.599.652.915-.089.759-.138 2.013-.149 2.788C3.111 13.779 3 14.774 3 15.5c0 .96.893 3.114 2.159 3.454C6.703 22.302 9.004 24 12 24s5.297-1.698 6.841-5.046C20.107 18.614 21 16.46 21 15.5c0-.726-.111-1.721-1.002-2.296-.011-.775-.061-2.029-.149-2.788.404-.316.652-.629.652-.915 0-.881-.743-1.553-1.076-1.81l-.28-.839C20.151 6.561 22 5.844 22 4.5z"></path><path fill="#ffe69b" d="M19 13.5a.5.5 0 0 0 .291.454c.369.17.709.475.709 1.546 0 .764-.872 2.5-1.5 2.5a.502.502 0 0 0-.451.283l-.097.209C17.443 19.607 15.893 23 12 23s-5.443-3.393-5.952-4.507l-.097-.209A.5.5 0 0 0 5.5 18C4.872 18 4 16.264 4 15.5c0-1.071.341-1.376.709-1.546A.5.5 0 0 0 5 13.5c0-.62.038-1.694.1-2.483C7.051 12.064 10.299 13 12 13s4.949-.936 6.9-1.983c.062.789.1 1.863.1 2.483z"></path><path fill="#37474f" d="M19.497 9.437C18.985 10.144 14.516 12 12 12s-6.985-1.856-7.497-2.563c.04-.357.393-.714.63-.908C5.865 8.646 8.377 9 12 9c3.624 0 6.136-.354 6.868-.471.227.187.588.548.629.908z"></path><path fill="#01579b" d="M18.393 6.012a.499.499 0 0 0-.368.646l.313.938C17.331 7.737 15.05 8 12 8s-5.331-.263-6.338-.404l.313-.938a.495.495 0 0 0-.04-.405.495.495 0 0 0-.328-.241C4.514 5.773 3 5.115 2.997 4.53 3.316 3.546 10.234 1 12 1c1.76 0 8.633 2.528 9 3.519-.03.633-1.566 1.263-2.607 1.493z"></path><path fill="#fff" d="M3.747 5.28c.32-.983 7.237-3.529 9.003-3.529 1.44 0 6.302 1.693 8.222 2.851.007-.028.026-.055.027-.083-.367-.991-7.24-3.519-9-3.519-1.766 0-8.684 2.546-9.003 3.529.002.265.321.544.764.793-.002-.014-.013-.028-.013-.042z" opacity=".2"></path><path fill="#303c42" d="M14.455 5.002c-.749.069-1.83.249-2.455.686-.625-.438-1.706-.618-2.454-.686a.51.51 0 0 0-.543.452.5.5 0 0 0 .452.544c.936.086 1.918.356 2.045.502 0 .276.216.532.492.532a.468.468 0 0 0 .465-.332c.019-.042.024-.09.03-.138.149-.21 1.126-.478 2.059-.564a.5.5 0 0 0-.091-.996z"></path><linearGradient id="a" x1="8.529" x2="19.174" y1="16.412" y2="5.768" gradientTransform="matrix(1 0 0 -1 0 24)" gradientUnits="userSpaceOnUse"><stop offset="0" stop-opacity=".1"></stop><stop offset="1" stop-opacity="0"></stop></linearGradient><path fill="url(#a)" d="M19.291 13.954A.5.5 0 0 1 19 13.5c0-.62-.038-1.694-.1-2.483C16.949 12.064 13.701 13 12 13s-4.949-.936-6.9-1.983l-.005.078 10.589 10.589c1.298-1.08 1.968-2.532 2.269-3.191l.097-.209A.498.498 0 0 1 18.5 18c.628 0 1.5-1.736 1.5-2.5 0-1.071-.341-1.376-.709-1.546z"></path><circle cx="8.5" cy="14" r="1" fill="#303c42"></circle><circle cx="15.5" cy="14" r="1" fill="#303c42"></circle><linearGradient id="b" x1="8.542" x2="16.186" y1="18.886" y2="11.242" gradientTransform="matrix(1 0 0 -1 0 24)" gradientUnits="userSpaceOnUse"><stop offset="0" stop-opacity=".1"></stop><stop offset="1" stop-opacity="0"></stop></linearGradient><path fill="url(#b)" d="M19.497 9.437c-.04-.36-.402-.721-.629-.908C18.136 8.646 15.624 9 12 9c-3.623 0-6.135-.354-6.867-.471l-.055.049 2.395 2.395C8.975 11.53 10.734 12 12 12c2.516 0 6.985-1.856 7.497-2.563z"></path><linearGradient id="c" x1=".93" x2="21.073" y1="17.362" y2="7.969" gradientTransform="matrix(1 0 0 -1 0 24)" gradientUnits="userSpaceOnUse"><stop offset="0" stop-color="#fff" stop-opacity=".2"></stop><stop offset="1" stop-color="#fff" stop-opacity="0"></stop></linearGradient><path fill="url(#c)" d="M22 4.5C22 2.615 13.505 0 12 0S2 2.615 2 4.5c0 1.344 1.849 2.061 2.856 2.351l-.28.839C4.243 7.947 3.5 8.619 3.5 9.5c0 .287.248.599.652.915-.089.759-.138 2.013-.149 2.788C3.111 13.779 3 14.774 3 15.5c0 .96.893 3.114 2.159 3.454C6.703 22.302 9.004 24 12 24s5.297-1.698 6.841-5.046C20.107 18.614 21 16.46 21 15.5c0-.726-.111-1.721-1.002-2.296-.011-.775-.061-2.029-.149-2.788.404-.316.652-.629.652-.915 0-.881-.743-1.553-1.076-1.81l-.28-.839C20.151 6.561 22 5.844 22 4.5z"></path></svg>